<?xml version="1.0" standalone="no"?><!DOCTYPE svg PUBLIC "-//W3C//DTD SVG 1.1//EN" "http://www.w3.org/Graphics/SVG/1.1/DTD/svg11.dtd"><svg t="1764592437818" class="icon" viewBox="0 0 1024 1024" version="1.1" xmlns="http://www.w3.org/2000/svg" p-id="3579" xmlns:xlink="http://www.w3.org/1999/xlink" width="200" height="200"><path d="M256 256m-256 0a256 256 0 1 0 512 0 256 256 0 1 0-512 0Z" fill="#0AE549" p-id="3580"></path><path d="M768 256m-256 0a256 256 0 1 0 512 0 256 256 0 1 0-512 0Z" fill="#0AE549" p-id="3581"></path><path d="M256 768m-256 0a256 256 0 1 0 512 0 256 256 0 1 0-512 0Z" fill="#0AE549" p-id="3582"></path><path d="M768 768m-256 0a256 256 0 1 0 512 0 256 256 0 1 0-512 0Z" fill="#0AE549" p-id="3583"></path></svg>