<?xml version="1.0" standalone="no"?><!DOCTYPE svg PUBLIC "-//W3C//DTD SVG 1.1//EN" "http://www.w3.org/Graphics/SVG/1.1/DTD/svg11.dtd"><svg t="1764592427391" class="icon" viewBox="0 0 1024 1024" version="1.1" xmlns="http://www.w3.org/2000/svg" p-id="2587" xmlns:xlink="http://www.w3.org/1999/xlink" width="200" height="200"><path d="M512.042667 204.8c-136.533333 0-221.866667 68.266667-256 204.8 51.2-68.266667 110.933333-93.866667 179.2-76.8 38.954667 9.728 66.773333 37.973333 97.621333 69.290667C583.082667 453.034667 641.152 512 768.042667 512c136.533333 0 221.866667-68.266667 256-204.8-51.2 68.266667-110.933333 93.866667-179.2 76.8-38.954667-9.728-66.773333-37.973333-97.621334-69.290667C697.045333 263.765333 638.976 204.8 512.042667 204.8z m-256 307.2c-136.533333 0-221.866667 68.266667-256 204.8 51.2-68.266667 110.933333-93.866667 179.2-76.8 38.954667 9.728 66.773333 37.973333 97.621333 69.290667 50.218667 50.944 108.288 109.909333 235.178667 109.909333 136.533333 0 221.866667-68.266667 256-204.8-51.2 68.266667-110.933333 93.866667-179.2 76.8-38.954667-9.728-66.773333-37.973333-97.621334-69.290667C441.045333 570.965333 382.976 512 256.042667 512z" fill="#06B6D4" p-id="2588"></path></svg>